<svg fill="none" height="203" viewBox="0 0 170 203" width="170" xmlns="http://www.w3.org/2000/svg"><g fill="#fff" opacity=".08"><path d="m169.651 3.488c0-2.093-1.396-3.488-3.491-3.488l-162.67.349c-1.046 0-1.745.349-2.443 1.046-.697.698-1.047 1.395-1.047 2.442l.35 195.675c0 2.093 1.395 3.488 3.49 3.488l162.669-.349c1.047 0 1.746-.349 2.444-1.046.698-.698 1.047-1.395 1.047-2.442zm-162.32 192.536-.35-188.7 155.688-.348.349 188.699-155.687.349z"/><path d="m25.133 78.13 119.733-.348c1.048 0 1.746-.349 2.444-1.047.698-.697 1.047-1.395 1.047-2.441v-54.064c0-2.093-1.396-3.488-3.491-3.488l-119.733.35c-1.047 0-2.094.348-2.443 1.046-.698.697-1.047 1.395-1.047 2.441v54.064c0 2.092 1.396 3.488 3.49 3.488zm115.894-54.412v47.088l-112.403.349v-47.088zm-115.894 91.734h20.597c1.047 0 1.745-.349 2.443-1.047.699-.697 1.048-1.395 1.048-2.441v-21.974c0-2.093-1.397-3.488-3.491-3.488h-20.597c-1.047 0-1.745.349-2.443 1.046-.698.698-1.047 1.395-1.047 2.442v21.974c0 1.744 1.396 3.488 3.49 3.488zm17.105-21.974v14.998h-13.614v-14.998zm-17.105 56.505h20.597c1.047 0 1.745-.349 2.443-1.047.699-.697 1.048-1.395 1.048-2.441v-21.974c0-2.093-1.397-3.488-3.491-3.488h-20.597c-1.047 0-1.745.348-2.443 1.046s-1.047 1.395-1.047 2.442v21.974c0 2.093 1.745 3.488 3.49 3.488zm17.105-21.626v14.999h-13.614v-14.999zm15.709-13.254h20.595c1.047 0 1.745-.349 2.444-1.046.698-.698 1.047-1.396 1.047-2.442v-21.974c0-2.093-1.397-3.488-3.49-3.488h-20.597c-1.048 0-1.746.349-2.444 1.046-.698.698-1.047 1.395-1.047 2.442v21.974c0 2.093 1.396 3.488 3.49 3.488zm16.755-21.625v14.998h-13.614v-14.998zm-16.755 56.505h20.595c1.047 0 1.745-.349 2.444-1.047.698-.697 1.047-1.395 1.047-2.441v-21.974c0-2.093-1.397-3.488-3.49-3.488h-20.597c-1.048 0-1.746.348-2.444 1.046s-1.047 1.395-1.047 2.442v21.974c0 2.093 1.396 3.488 3.49 3.488zm16.755-21.974v14.998h-13.614v-14.998zm15.708-12.906h20.596c1.047 0 1.746-.349 2.444-1.046.698-.698 1.047-1.396 1.047-2.442v-21.974c0-2.093-1.396-3.488-3.491-3.488h-20.595c-1.047 0-1.746.349-2.444 1.046-.698.698-1.047 1.395-1.047 2.442v21.974c0 2.093 1.745 3.488 3.49 3.488zm17.105-21.974v14.998h-13.614v-14.998zm14.662 21.974h20.595c1.047 0 1.745-.349 2.444-1.046.698-.698 1.047-1.396 1.047-2.442v-21.974c0-2.093-1.397-3.488-3.491-3.488h-20.595c-1.048 0-1.746.349-2.444 1.046-.698.698-1.047 1.395-1.047 2.442v21.974c0 2.093 1.745 3.488 3.491 3.488zm17.104-21.974v14.998h-13.614v-14.998zm-48.871 56.854h20.596c1.047 0 1.746-.349 2.444-1.047.698-.697 1.047-1.395 1.047-2.441v-21.974c0-2.093-1.396-3.488-3.491-3.488h-20.595c-1.047 0-1.746.348-2.444 1.046s-1.047 1.395-1.047 2.442v21.974c0 2.093 1.745 3.488 3.49 3.488zm17.105-21.974v14.998h-13.614v-14.998zm-61.786 27.903h-20.596c-1.047 0-1.745.349-2.443 1.047-.698.697-1.047 1.395-1.047 2.441v21.975c0 2.092 1.396 3.488 3.49 3.488h20.597c1.047 0 1.745-.349 2.443-1.047.699-.697 1.048-1.395 1.048-2.441v-21.975c0-1.744-1.746-3.488-3.491-3.488zm-17.105 21.975v-14.999h13.614v14.999zm49.918-21.975h-20.595c-1.048 0-1.746.349-2.444 1.047-.698.697-1.047 1.395-1.047 2.441v21.975c0 2.092 1.396 3.488 3.49 3.488h20.596c1.047 0 1.745-.349 2.444-1.047.698-.697 1.047-1.395 1.047-2.441v-21.975c0-1.744-1.746-3.488-3.49-3.488zm-17.105 21.975v-14.999h13.614v14.999zm49.569-21.975h-20.595c-1.047 0-1.746.349-2.444 1.047-.698.697-1.047 1.395-1.047 2.441v21.975c0 2.092 1.396 3.488 3.49 3.488h20.596c1.047 0 1.746-.349 2.444-1.047.698-.697 1.047-1.395 1.047-2.441v-21.975c0-2.092-1.396-3.488-3.491-3.488zm-16.755 21.975v-14.999h13.613v14.999h-13.614zm50.615-56.854h-22.689c-1.048 0-1.746.348-2.444 1.046s-1.047 1.395-1.047 2.442v56.854c0 2.092 1.396 3.488 3.491 3.488h22.689c1.048 0 1.746-.349 2.444-1.047.698-.697 1.047-1.395 1.047-2.441v-56.854c0-2.093-1.745-3.488-3.491-3.488zm-19.199 56.854v-49.878h15.709v49.878z"/></g></svg>